#!OML:ASF I:\Random Stuff\random\construction\7_22_03\Session 2\subj1.ASF
:FULLY-SPECIFIED
:DEGREES
2372
root 3.98203 17.799 0.965509 33.8452 96.8539 24.8415
lowerback 1.49915 0.775171 -1.45761
upperback 0.280311 1.02589 1.41143
thorax -0.604507 0.519696 2.24292
lowerneck -22.918 -1.73303 2.9665
upperneck 42.5886 -6.66588 10.1211
head 21.7841 0.188606 3.50651
rclavicle 1.08959e-014 7.60351e-015
rhumerus 30.2899 43.8752 -47.6112
rradius 114.276
rwrist -23.1927
rhand -26.5058 0.120122
rfingers 7.12502
rthumb 0.0571961 -29.8596
lclavicle 1.08959e-014 7.60351e-015
lhumerus -5.92489 -37.56 74.8926
lradius 119.419
lwrist 20.9157
lhand -21.2184 36.4121
lfingers 7.12502
lthumb 5.16343 786.329
rfemur -9.36666 15.7937 23.5874
rtibia 9.41423
rfoot -8.49982 -40.2206
rtoes 12.2006
lfemur -22.012 -24.1692 -6.73517
ltibia 19.4974
lfoot -7.75168 21.1273
ltoes -30.9478
2373
root 3.98189 17.7958 0.967419 33.6904 96.8536 24.6211
lowerback 1.40052 0.774319 -1.4397
upperback 0.286734 1.02453 1.32207
thorax -0.540652 0.517866 2.14255
lowerneck -23.0295 -1.70298 2.89795
upperneck 42.4446 -6.73334 10.4334
head 21.758 0.190899 3.66069
rclavicle -1.11816e-015 -1.57537e-014
rhumerus 29.9875 43.8088 -47.9051
rradius 114.513
rwrist -22.5912
rhand -26.3698 -0.0179659
rfingers 7.12502
rthumb 0.188607 -29.9976
lclavicle -1.11816e-015 -1.57537e-014
lhumerus -5.90035 -37.6414 74.787
lradius 119.461
lwrist 20.7627
lhand -21.3603 36.5977
lfingers 7.12502
lthumb 5.02647 786.518
rfemur -9.37213 15.8055 23.5719
rtibia 9.34511
rfoot -8.49451 -40.2673
rtoes 10.9219
lfemur -22.091 -23.9325 -6.7675
ltibia 19.532
lfoot -7.7404 20.9509
ltoes -31.3865
2374
root 3.98466 17.7951 0.968996 33.4622 96.846 24.3523
lowerback 1.36099 0.762097 -1.4886
upperback 0.252461 1.00714 1.27805
thorax -0.552819 0.509365 2.12544
lowerneck -23.1019 -1.70484 2.92643
upperneck 42.3536 -6.75454 10.4039
head 21.7105 0.178189 3.62295
rclavicle 8.46077e-015 5.66536e-015
rhumerus 29.6196 43.7817 -48.2426
rradius 114.765
rwrist -21.6649
rhand -26.052 -0.463814
rfingers 7.12502
rthumb 0.495531 -30.443
lclavicle 8.46077e-015 5.66536e-015
lhumerus -6.05286 -37.6352 74.804
lradius 119.51
lwrist 20.8964
lhand -21.475 36.8299
lfingers 7.12502
lthumb 4.91568 786.753
rfemur -9.33626 15.8171 23.5453
rtibia 9.24084
rfoot -8.40683 -40.2941
rtoes 10.2378
lfemur -22.1458 -23.8559 -6.80094
ltibia 19.6001
lfoot -7.85643 20.8637
ltoes -31.4482
2375
root 3.99079 17.7949 0.970018 33.5384 96.8377 24.4274
lowerback 1.33141 0.742481 -1.59358
upperback 0.224813 0.980179 1.32225
thorax -0.565798 0.496532 2.23055
lowerneck -23.1808 -1.68457 2.98428
upperneck 42.335 -6.68685 10.2072
head 21.6895 0.181994 3.51741
rclavicle -2.91965e-015 -2.28602e-015
rhumerus 29.2977 43.7762 -48.5068
rradius 115.001
rwrist -20.976
rhand -25.5158 -0.861326
rfingers 7.12502
rthumb 1.01336 -30.8387
lclavicle -2.91965e-015 -2.28602e-015
lhumerus -6.27778 -37.4882 74.9676
lradius 119.624
lwrist 21.2942
lhand -21.3947 37.2704
lfingers 7.12502
lthumb 4.99328 787.192
rfemur -9.26199 15.8497 23.5637
rtibia 9.13957
rfoot -8.34054 -40.3036
rtoes 10.2367
lfemur -22.1584 -23.9843 -6.77487
ltibia 19.6684
lfoot -7.936 20.9812
ltoes -31.2628
2376
root 3.9969 17.7932 0.97019 33.8646 96.8205 24.7631
lowerback 1.27154 0.730038 -1.67507
upperback 0.224431 0.963703 1.37553
thorax -0.534058 0.488271 2.33222
lowerneck -23.2217 -1.64194 2.99614
upperneck 42.2933 -6.58764 10.0905
head 21.6475 0.199241 3.46871
rclavicle -1.73315e-014 -9.74045e-015
rhumerus 29.0049 43.7432 -48.7784
rradius 115.262
rwrist -20.7924
rhand -25.1991 -0.904421
rfingers 7.12502
rthumb 1.31927 -30.8801
lclavicle -1.73315e-014 -9.74045e-015
lhumerus -6.44513 -37.2557 75.1197
lradius 119.717
lwrist 21.8793
lhand -21.4149 37.6073
lfingers 7.12502
lthumb 4.97379 787.529
rfemur -9.21511 15.9068 23.6092
rtibia 9.12017
rfoot -8.24577 -40.3257
rtoes 10.0167
lfemur -22.1409 -24.1843 -6.7038
ltibia 19.6925
lfoot -7.98995 21.193
ltoes -30.8549
